<?xml version="1.0" standalone="no"?>
<!DOCTYPE svg PUBLIC "-//W3C//DTD SVG 20010904//EN"
 "http://www.w3.org/TR/2001/REC-SVG-20010904/DTD/svg10.dtd">
<svg version="1.0" xmlns="http://www.w3.org/2000/svg"
 width="323.000000pt" height="61.000000pt" viewBox="0 0 323.000000 61.000000"
 preserveAspectRatio="xMidYMid meet">

<g transform="translate(0.000000,61.000000) scale(0.100000,-0.100000)"
fill="#000000" stroke="none">
<path d="M3005 468 c11 -6 23 -16 27 -22 5 -8 8 -7 8 1 0 7 -9 17 -19 23 -27
14 -41 12 -16 -2z"/>
<path d="M213 405 c0 -38 2 -53 4 -32 2 20 2 52 0 70 -2 17 -4 1 -4 -38z"/>
<path d="M1112 440 c0 -19 2 -27 5 -17 2 9 2 25 0 35 -3 9 -5 1 -5 -18z"/>
<path d="M1870 444 c0 -14 4 -23 9 -20 5 3 7 15 4 26 -7 28 -13 25 -13 -6z"/>
<path d="M2552 445 c0 -16 2 -22 5 -12 2 9 2 23 0 30 -3 6 -5 -1 -5 -18z"/>
<path d="M543 425 c0 -22 2 -30 4 -17 2 12 2 30 0 40 -3 9 -5 -1 -4 -23z"/>
<path d="M1810 445 c0 -8 4 -15 10 -15 5 0 7 7 4 15 -4 8 -8 15 -10 15 -2 0
-4 -7 -4 -15z"/>
<path d="M2909 434 c-23 -24 -37 -94 -19 -94 4 0 6 14 5 31 -2 24 4 38 24 55
14 12 23 25 20 28 -3 3 -16 -6 -30 -20z"/>
<path d="M430 441 c0 -9 74 -107 103 -136 25 -26 -19 41 -49 75 -19 20 -34 42
-34 48 0 6 -4 14 -10 17 -5 3 -10 2 -10 -4z"/>
<path d="M603 385 c0 -38 2 -53 4 -32 2 20 2 52 0 70 -2 17 -4 1 -4 -38z"/>
<path d="M750 440 c-8 -5 -10 -10 -5 -10 6 0 17 5 25 10 8 5 11 10 5 10 -5 0
-17 -5 -25 -10z"/>
<path d="M1571 434 c0 -11 3 -14 6 -6 3 7 2 16 -1 19 -3 4 -6 -2 -5 -13z"/>
<path d="M1701 446 c-1 -10 63 -98 84 -116 26 -22 16 -3 -22 43 -21 24 -43 53
-50 63 -6 10 -12 15 -12 10z"/>
<path d="M2280 435 c0 -8 4 -15 10 -15 5 0 7 7 4 15 -4 8 -8 15 -10 15 -2 0
-4 -7 -4 -15z"/>
<path d="M2331 434 c0 -11 3 -14 6 -6 3 7 2 16 -1 19 -3 4 -6 -2 -5 -13z"/>
<path d="M3050 446 c0 -2 8 -10 18 -17 15 -13 16 -12 3 4 -13 16 -21 21 -21
13z"/>
<path d="M1465 413 c10 -16 28 -39 40 -53 12 -14 29 -36 38 -50 10 -13 17 -19
17 -13 0 6 -20 35 -45 65 -25 30 -45 60 -45 67 0 6 -5 11 -11 11 -7 0 -4 -11
6 -27z"/>
<path d="M1920 426 c0 -2 7 -6 15 -10 8 -3 15 -1 15 4 0 6 -7 10 -15 10 -8 0
-15 -2 -15 -4z"/>
<path d="M2418 413 c-10 -2 -18 -8 -18 -13 0 -4 9 -6 20 -3 11 3 20 9 20 14 0
5 -1 8 -2 8 -2 -1 -11 -3 -20 -6z"/>
<path d="M2333 360 c0 -30 2 -43 4 -27 2 15 2 39 0 55 -2 15 -4 2 -4 -28z"/>
<path d="M785 390 c3 -5 8 -10 11 -10 2 0 4 5 4 10 0 6 -5 10 -11 10 -5 0 -7
-4 -4 -10z"/>
<path d="M1823 365 c0 -22 2 -30 4 -17 2 12 2 30 0 40 -3 9 -5 -1 -4 -23z"/>
<path d="M890 380 c-13 -8 -12 -10 3 -10 9 0 17 5 17 10 0 12 -1 12 -20 0z"/>
<path d="M1583 330 c0 -36 2 -50 4 -32 2 17 2 47 0 65 -2 17 -4 3 -4 -33z"/>
<path d="M100 370 c0 -5 17 -22 37 -39 l37 -31 -23 -24 c-13 -13 -37 -31 -55
-40 -17 -9 -25 -16 -17 -16 20 0 80 39 91 60 10 19 4 50 -10 50 -4 0 -19 11
-34 25 -14 13 -26 20 -26 15z"/>
<path d="M740 374 c0 -12 38 -74 46 -74 3 0 -5 17 -17 38 -28 46 -29 47 -29
36z"/>
<path d="M1001 370 c0 -8 4 -24 9 -35 5 -13 9 -14 9 -5 0 8 -4 24 -9 35 -5 13
-9 14 -9 5z"/>
<path d="M1073 335 c0 -27 2 -38 4 -22 2 15 2 37 0 50 -2 12 -4 0 -4 -28z"/>
<path d="M2605 370 c-3 -5 -1 -10 4 -10 6 0 11 5 11 10 0 6 -2 10 -4 10 -3 0
-8 -4 -11 -10z"/>
<path d="M3075 371 c-3 -5 -2 -12 3 -15 5 -3 9 1 9 9 0 17 -3 19 -12 6z"/>
<path d="M300 339 c0 -5 5 -7 10 -4 6 3 10 8 10 11 0 2 -4 4 -10 4 -5 0 -10
-5 -10 -11z"/>
<path d="M860 342 c0 -4 7 -17 15 -28 21 -28 19 -31 -22 -39 -30 -6 -34 -9
-19 -14 13 -5 38 3 73 22 58 31 69 43 26 26 -24 -9 -31 -7 -50 16 -13 14 -23
22 -23 17z"/>
<path d="M1285 340 c-8 -13 5 -13 25 0 13 8 13 10 -2 10 -9 0 -20 -4 -23 -10z"/>
<path d="M2390 337 c0 -14 24 -57 32 -57 5 0 1 12 -9 28 -22 35 -23 36 -23 29z"/>
<path d="M1883 290 c0 -25 2 -35 4 -22 2 12 2 32 0 45 -2 12 -4 2 -4 -23z"/>
<path d="M2563 290 c0 -25 2 -35 4 -22 2 12 2 32 0 45 -2 12 -4 2 -4 -23z"/>
<path d="M1174 305 c-8 -19 -6 -20 23 -29 20 -7 22 -5 14 15 -10 29 -29 36
-37 14z m21 -5 c3 -5 1 -10 -4 -10 -6 0 -11 5 -11 10 0 6 2 10 4 10 3 0 8 -4
11 -10z"/>
<path d="M2500 315 c0 -5 5 -17 10 -25 5 -8 10 -10 10 -5 0 6 -5 17 -10 25 -5
8 -10 11 -10 5z"/>
<path d="M2622 300 c0 -14 2 -19 5 -12 2 6 2 18 0 25 -3 6 -5 1 -5 -13z"/>
<path d="M2882 208 l-2 -118 108 2 107 2 -102 3 -102 4 -4 112 -3 112 -2 -117z"/>
<path d="M666 294 c19 -15 18 -15 -4 -11 -12 3 -20 2 -17 -3 7 -11 45 -20 45
-10 0 21 -14 40 -28 40 -13 0 -12 -3 4 -16z"/>
<path d="M1122 285 c0 -16 2 -22 5 -12 2 9 2 23 0 30 -3 6 -5 -1 -5 -18z"/>
<path d="M1471 292 c-8 -16 -7 -21 5 -26 27 -11 35 -7 32 16 -4 29 -24 34 -37
10z m29 -13 c0 -6 -4 -7 -10 -4 -5 3 -10 11 -10 16 0 6 5 7 10 4 6 -3 10 -11
10 -16z"/>
<path d="M2680 295 c14 -17 13 -18 -2 -12 -10 3 -18 2 -18 -3 0 -6 9 -10 21
-10 24 0 23 30 -1 38 -13 5 -13 3 0 -13z"/>
<path d="M820 292 c0 -5 7 -9 15 -9 8 0 15 4 15 9 0 4 -7 8 -15 8 -8 0 -15 -4
-15 -8z"/>
<path d="M1017 281 c-4 -17 -3 -21 5 -13 5 5 8 16 6 23 -3 8 -7 3 -11 -10z"/>
<path d="M2027 283 c4 -11 3 -14 -5 -9 -7 4 -12 2 -12 -3 0 -6 9 -11 20 -11
11 0 20 2 20 4 0 13 -13 36 -21 36 -4 0 -5 -7 -2 -17z"/>
<path d="M274 278 c-4 -5 -17 -8 -30 -5 -27 5 -33 -10 -8 -20 8 -3 23 1 31 10
14 14 18 14 27 2 6 -8 16 -11 23 -7 8 5 3 11 -13 19 -16 7 -26 8 -30 1z"/>
<path d="M340 270 c0 -5 4 -10 9 -10 6 0 13 5 16 10 3 6 -1 10 -9 10 -9 0 -16
-4 -16 -10z"/>
<path d="M380 235 c-24 -24 -48 -41 -54 -38 -6 3 -5 0 2 -8 11 -12 20 -6 57
35 29 31 50 46 60 42 8 -3 15 -1 15 4 0 24 -39 6 -80 -35z"/>
<path d="M740 268 c0 -10 27 -10 34 0 2 4 -4 8 -15 8 -10 0 -19 -4 -19 -8z"/>
<path d="M1304 268 c-4 -7 -3 -8 5 -4 7 4 20 -2 31 -16 16 -20 21 -21 40 -10
15 9 25 10 34 3 9 -8 18 -6 32 4 16 13 17 14 1 9 -9 -3 -24 -1 -31 5 -10 8
-16 9 -21 1 -9 -15 -41 -12 -55 5 -15 18 -26 19 -36 3z"/>
<path d="M1635 260 c-3 -5 -16 -10 -28 -10 -16 0 -18 -3 -9 -12 9 -9 16 -7 31
6 12 11 21 14 26 7 5 -9 29 -9 75 -2 3 1 -2 5 -10 11 -9 5 -19 5 -27 -1 -8 -7
-18 -7 -32 0 -13 7 -22 8 -26 1z"/>
<path d="M2077 263 c-4 -3 -7 -13 -7 -21 0 -12 10 -14 50 -9 29 4 50 2 50 -3
0 -6 7 -10 15 -10 12 0 12 3 -2 18 -14 14 -24 17 -42 10 -19 -7 -27 -5 -33 7
-10 16 -21 19 -31 8z"/>
<path d="M525 240 c-16 -17 -16 -20 -3 -15 9 4 19 13 22 21 7 19 2 18 -19 -6z"/>
<path d="M1799 234 c-22 -25 -22 -26 -3 -16 12 6 24 18 28 27 8 21 3 19 -25
-11z"/>
<path d="M2240 252 c0 -6 -8 -12 -17 -15 -10 -2 -1 -4 20 -4 20 -1 40 4 44 10
3 6 1 7 -6 3 -6 -4 -18 -2 -26 4 -10 8 -15 9 -15 2z"/>
<path d="M658 224 c-14 -15 -37 -26 -52 -26 -14 0 -23 -4 -20 -9 14 -22 59 -1
93 44 20 25 9 21 -21 -9z"/>
<path d="M977 229 c-15 -12 -34 -18 -42 -15 -8 3 -15 1 -15 -4 0 -19 39 -10
67 15 34 30 28 32 -10 4z"/>
<path d="M1032 240 c3 -8 13 -15 23 -15 10 0 21 7 23 15 4 12 2 13 -10 3 -11
-10 -17 -10 -27 0 -11 10 -13 9 -9 -3z"/>
<path d="M1185 230 c-24 -27 -53 -34 -72 -18 -15 12 -15 11 -4 -9 6 -13 14
-23 17 -23 16 0 65 33 74 50 14 25 8 25 -15 0z"/>
<path d="M2625 240 c-4 -6 -30 -24 -58 -40 -55 -31 -58 -41 -4 -14 21 12 32
13 35 5 9 -27 60 -9 92 34 10 13 3 10 -18 -8 -19 -15 -39 -27 -46 -27 -24 0
-26 14 -4 37 12 13 19 23 15 23 -3 0 -9 -5 -12 -10z"/>
<path d="M821 209 c-21 -19 -40 -29 -52 -26 -19 5 -26 -7 -10 -18 15 -9 57 15
80 46 27 36 24 36 -18 -2z"/>
<path d="M1549 223 c-13 -16 -12 -17 4 -4 16 13 21 21 13 21 -2 0 -10 -8 -17
-17z"/>
<path d="M1940 226 c-22 -27 -102 -50 -174 -51 -57 0 -79 5 -111 23 l-40 24
28 -29 c26 -27 32 -28 120 -28 76 0 100 4 139 23 25 13 49 29 52 37 7 19 2 19
-14 1z"/>
<path d="M2390 228 c0 -11 28 -10 35 1 3 6 -4 9 -15 8 -11 -1 -20 -5 -20 -9z"/>
<path d="M2460 205 c-30 -19 -50 -35 -44 -35 12 0 104 57 104 65 0 8 -1 7 -60
-30z"/>
<path d="M2029 213 c-13 -16 -12 -17 4 -4 16 13 21 21 13 21 -2 0 -10 -8 -17
-17z"/>
<path d="M2083 188 c-13 -12 -34 -21 -52 -21 -17 0 -31 -4 -31 -9 0 -19 52 -6
82 22 18 16 31 30 28 30 -3 0 -15 -10 -27 -22z"/>
<path d="M1368 193 c-10 -2 -18 -8 -18 -13 0 -4 9 -6 20 -3 11 3 20 9 20 14 0
5 -1 8 -2 8 -2 -1 -11 -3 -20 -6z"/>
<path d="M1950 173 c-25 -13 -34 -21 -20 -17 30 8 80 33 80 39 0 8 -13 3 -60
-22z"/>
<path d="M2931 149 c16 -9 119 -11 119 -1 0 4 -29 8 -65 8 -35 0 -60 -3 -54
-7z"/>
</g>
</svg>
