<svg width="24" height="31" viewBox="0 0 24 31" fill="none" xmlns="http://www.w3.org/2000/svg">
<path d="M23.8978 30.9775L19.5578 30.962L19.5592 14.9371C19.6024 13.9993 19.28 13.4209 19.0021 13.0996L18.9596 13.051L19.0014 13.0017C19.1817 12.791 19.3167 12.5416 19.4037 12.2605C19.7212 11.2354 19.3203 10.0398 18.7595 9.38807L18.7553 9.38243C17.3348 7.3928 14.6211 5.549 12.1569 4.898L11.9569 4.84516L11.7553 4.88955C10.3737 5.19461 8.57565 6.15914 7.06111 7.40618C6.30384 8.02971 5.66395 8.68916 5.21072 9.31339C4.6486 10.0877 4.36365 10.8148 4.36365 11.4742C4.36365 12.0505 4.55526 12.5987 4.90385 13.0172L4.94344 13.0644L4.90456 13.1123C4.5991 13.4899 4.43789 13.9789 4.43789 14.527L4.44355 30.9366L0.0830619 30.9394L0.0371025 12.9432C-0.0470386 10.7218 -0.0979476 9.38243 1.13447 7.39773C2.19578 5.6892 4.01648 3.94686 6.26071 2.49057C7.14808 1.91495 8.05949 1.4112 8.96878 0.994818L8.98646 0.986364C9.0006 0.980023 9.01262 0.974386 9.02464 0.969455L9.05717 0.954659C9.06494 0.951136 9.07413 0.946205 9.08403 0.942682L9.08898 0.940568C10.1715 0.45725 11.1741 0.141614 12.0707 0.00211364L12.0855 0L12.1004 0.00352273C12.1782 0.02325 12.2616 0.0450909 12.3479 0.0683409L12.6328 0.148659C13.5923 0.4185 14.626 0.801068 15.623 1.25409C16.2961 1.56057 16.9438 1.89452 17.5476 2.2468C19.2163 3.21907 20.5802 4.3245 21.602 5.5328C21.9661 5.96327 22.2914 6.41136 22.5678 6.8658C23.8094 8.90264 23.9975 9.89886 23.9996 12.2668L23.8978 30.9768V30.9775ZM19.7084 30.8126L23.7479 30.8267L23.849 12.2668C23.8476 9.93198 23.6624 8.94984 22.4391 6.944C22.1662 6.49591 21.8459 6.05416 21.4867 5.63002C20.4763 4.43441 19.1251 3.34025 17.472 2.37714C16.8717 2.02768 16.229 1.69584 15.5608 1.39148C14.5709 0.941273 13.5442 0.561523 12.5918 0.293795L12.3076 0.213477C12.2284 0.191636 12.1513 0.171205 12.0792 0.152886C11.1996 0.291682 10.2153 0.602386 9.15191 1.07655L9.1406 1.08148C9.13353 1.0843 9.12717 1.08711 9.1201 1.09064L9.08686 1.10543C9.07414 1.11107 9.06141 1.1167 9.04939 1.12234L9.03312 1.13009C8.12949 1.54436 7.22515 2.04389 6.34344 2.61598C4.11759 4.05959 2.31315 5.78573 1.26316 7.47593C0.0540721 9.42259 0.104274 10.7443 0.187708 12.9347V12.9425L0.233667 30.79L4.29294 30.7872L4.28729 14.5277C4.28729 13.9676 4.44708 13.4639 4.74971 13.0672C4.40325 12.6283 4.21304 12.0653 4.21304 11.4756C4.21304 10.7838 4.50789 10.0271 5.08839 9.22673C5.5494 8.59193 6.19849 7.92332 6.96495 7.29205C8.49646 6.03091 10.3193 5.05511 11.7221 4.74441L11.9597 4.69157L12.1951 4.75357C14.6897 5.41232 17.4359 7.27866 18.8755 9.29295C19.4617 9.97636 19.881 11.229 19.5472 12.3049C19.461 12.5839 19.3294 12.8347 19.1562 13.0503C19.4419 13.4005 19.7523 14.0014 19.7091 14.9406L19.7077 30.8126H19.7084Z" fill="#1D1819"/>
</svg>
